<mxfile host="app.diagrams.net" modified="2020-08-06T08:16:33.141Z" agent="5.0 (Windows NT 10.0; Win64; x64) AppleWebKit/537.36 (KHTML, like Gecko) Chrome/84.0.4147.105 Safari/537.36" etag="IAgi1LNa5CIAoz44RR7P" version="13.6.0" type="github">
  <diagram id="-5PzwK4e3VYsQq0VXp6S" name="Page-1">
    <mxGraphModel dx="1422" dy="794" grid="0" gridSize="10" guides="1" tooltips="1" connect="1" arrows="1" fold="1" page="1" pageScale="1" pageWidth="850" pageHeight="1100" math="0" shadow="0">
      <root>
        <mxCell id="0" />
        <mxCell id="1" parent="0" />
        <mxCell id="UWFpdBoAxp5NuGWcHLXU-1" value="PRD" style="rounded=1;whiteSpace=wrap;html=1;gradientColor=#ea6b66;fillColor=#f8cecc;strokeColor=#b85450;" vertex="1" parent="1">
          <mxGeometry x="620" y="570" width="120" height="60" as="geometry" />
        </mxCell>
        <mxCell id="UWFpdBoAxp5NuGWcHLXU-3" style="edgeStyle=orthogonalEdgeStyle;rounded=0;orthogonalLoop=1;jettySize=auto;html=1;" edge="1" parent="1" source="UWFpdBoAxp5NuGWcHLXU-2" target="UWFpdBoAxp5NuGWcHLXU-1">
          <mxGeometry relative="1" as="geometry" />
        </mxCell>
        <mxCell id="UWFpdBoAxp5NuGWcHLXU-2" value="master" style="ellipse;whiteSpace=wrap;html=1;aspect=fixed;" vertex="1" parent="1">
          <mxGeometry x="480" y="560" width="80" height="80" as="geometry" />
        </mxCell>
        <mxCell id="UWFpdBoAxp5NuGWcHLXU-4" value="STG" style="rounded=1;whiteSpace=wrap;html=1;gradientColor=#ffd966;fillColor=#fff2cc;strokeColor=#d6b656;" vertex="1" parent="1">
          <mxGeometry x="620" y="450" width="120" height="60" as="geometry" />
        </mxCell>
        <mxCell id="UWFpdBoAxp5NuGWcHLXU-5" style="edgeStyle=orthogonalEdgeStyle;rounded=0;orthogonalLoop=1;jettySize=auto;html=1;" edge="1" source="UWFpdBoAxp5NuGWcHLXU-6" target="UWFpdBoAxp5NuGWcHLXU-4" parent="1">
          <mxGeometry relative="1" as="geometry" />
        </mxCell>
        <mxCell id="UWFpdBoAxp5NuGWcHLXU-6" value="stage" style="ellipse;whiteSpace=wrap;html=1;aspect=fixed;" vertex="1" parent="1">
          <mxGeometry x="480" y="440" width="80" height="80" as="geometry" />
        </mxCell>
        <mxCell id="UWFpdBoAxp5NuGWcHLXU-7" value="QA" style="rounded=1;whiteSpace=wrap;html=1;gradientColor=#7ea6e0;fillColor=#dae8fc;strokeColor=#6c8ebf;" vertex="1" parent="1">
          <mxGeometry x="621" y="330" width="120" height="60" as="geometry" />
        </mxCell>
        <mxCell id="UWFpdBoAxp5NuGWcHLXU-8" style="edgeStyle=orthogonalEdgeStyle;rounded=0;orthogonalLoop=1;jettySize=auto;html=1;" edge="1" source="UWFpdBoAxp5NuGWcHLXU-9" target="UWFpdBoAxp5NuGWcHLXU-7" parent="1">
          <mxGeometry relative="1" as="geometry" />
        </mxCell>
        <mxCell id="UWFpdBoAxp5NuGWcHLXU-14" style="edgeStyle=orthogonalEdgeStyle;rounded=0;orthogonalLoop=1;jettySize=auto;html=1;entryX=0;entryY=0.5;entryDx=0;entryDy=0;" edge="1" parent="1" source="UWFpdBoAxp5NuGWcHLXU-9" target="UWFpdBoAxp5NuGWcHLXU-6">
          <mxGeometry relative="1" as="geometry" />
        </mxCell>
        <mxCell id="UWFpdBoAxp5NuGWcHLXU-15" style="edgeStyle=orthogonalEdgeStyle;rounded=0;orthogonalLoop=1;jettySize=auto;html=1;entryX=0;entryY=0.5;entryDx=0;entryDy=0;" edge="1" parent="1" source="UWFpdBoAxp5NuGWcHLXU-9" target="UWFpdBoAxp5NuGWcHLXU-2">
          <mxGeometry relative="1" as="geometry" />
        </mxCell>
        <mxCell id="UWFpdBoAxp5NuGWcHLXU-9" value="release" style="ellipse;whiteSpace=wrap;html=1;aspect=fixed;" vertex="1" parent="1">
          <mxGeometry x="320" y="320" width="80" height="80" as="geometry" />
        </mxCell>
        <mxCell id="UWFpdBoAxp5NuGWcHLXU-10" value="DEV" style="rounded=1;whiteSpace=wrap;html=1;gradientColor=#97d077;fillColor=#d5e8d4;strokeColor=#82b366;" vertex="1" parent="1">
          <mxGeometry x="620" y="210" width="120" height="60" as="geometry" />
        </mxCell>
        <mxCell id="UWFpdBoAxp5NuGWcHLXU-11" style="edgeStyle=orthogonalEdgeStyle;rounded=0;orthogonalLoop=1;jettySize=auto;html=1;" edge="1" source="UWFpdBoAxp5NuGWcHLXU-12" target="UWFpdBoAxp5NuGWcHLXU-10" parent="1">
          <mxGeometry relative="1" as="geometry" />
        </mxCell>
        <mxCell id="UWFpdBoAxp5NuGWcHLXU-12" value="develop" style="ellipse;whiteSpace=wrap;html=1;aspect=fixed;" vertex="1" parent="1">
          <mxGeometry x="320" y="200" width="80" height="80" as="geometry" />
        </mxCell>
        <mxCell id="UWFpdBoAxp5NuGWcHLXU-16" value="Developers" style="shape=umlActor;verticalLabelPosition=bottom;verticalAlign=top;html=1;outlineConnect=0;" vertex="1" parent="1">
          <mxGeometry x="105" y="262" width="30" height="60" as="geometry" />
        </mxCell>
        <mxCell id="UWFpdBoAxp5NuGWcHLXU-20" value="Only MERGE allowed from release branch" style="rounded=0;whiteSpace=wrap;html=1;dashed=1;fillColor=#b1ddf0;opacity=25;strokeColor=#10739e;labelPosition=center;verticalLabelPosition=bottom;align=center;verticalAlign=top;horizontal=1;" vertex="1" parent="1">
          <mxGeometry x="400" y="410" width="180" height="260" as="geometry" />
        </mxCell>
        <mxCell id="UWFpdBoAxp5NuGWcHLXU-25" style="edgeStyle=orthogonalEdgeStyle;rounded=0;orthogonalLoop=1;jettySize=auto;html=1;entryX=0;entryY=0.5;entryDx=0;entryDy=0;" edge="1" parent="1" source="UWFpdBoAxp5NuGWcHLXU-23" target="UWFpdBoAxp5NuGWcHLXU-12">
          <mxGeometry relative="1" as="geometry" />
        </mxCell>
        <mxCell id="UWFpdBoAxp5NuGWcHLXU-26" style="edgeStyle=orthogonalEdgeStyle;rounded=0;orthogonalLoop=1;jettySize=auto;html=1;entryX=0;entryY=0.5;entryDx=0;entryDy=0;" edge="1" parent="1" source="UWFpdBoAxp5NuGWcHLXU-23" target="UWFpdBoAxp5NuGWcHLXU-9">
          <mxGeometry relative="1" as="geometry" />
        </mxCell>
        <mxCell id="UWFpdBoAxp5NuGWcHLXU-23" value="local" style="ellipse;whiteSpace=wrap;html=1;aspect=fixed;" vertex="1" parent="1">
          <mxGeometry x="176" y="254" width="80" height="80" as="geometry" />
        </mxCell>
        <mxCell id="UWFpdBoAxp5NuGWcHLXU-21" value="" style="rounded=0;whiteSpace=wrap;html=1;dashed=1;fillColor=#fad9d5;opacity=25;strokeColor=#ae4132;" vertex="1" parent="1">
          <mxGeometry x="86" y="190" width="341" height="220" as="geometry" />
        </mxCell>
      </root>
    </mxGraphModel>
  </diagram>
</mxfile>
